<svg width="113" height="83" viewBox="0 0 113 83" fill="none" xmlns="http://www.w3.org/2000/svg">
<path d="M15.0673 11.5858L12.8025 9.32099C10.3782 6.89756 6.44864 6.89756 4.02435 9.32099C1.60093 11.7453 1.60093 15.6748 4.02435 18.0982L6.28053 20.3544L15.0673 11.5858Z" fill="#F2F1F0"/>
<path d="M86.52 29.6499C87.1002 29.6499 87.67 29.4163 88.0804 29.0033C88.4908 28.5929 88.727 28.0257 88.727 27.4429C88.727 26.8627 88.4908 26.2928 88.0804 25.8824C87.67 25.4721 87.1002 25.2358 86.52 25.2358C85.9398 25.2358 85.3699 25.4721 84.9595 25.8824C84.5491 26.2928 84.3129 26.8627 84.3129 27.4429C84.3129 28.0257 84.5491 28.5929 84.9595 29.0033C85.3699 29.4163 85.9372 29.6499 86.52 29.6499Z" fill="#554C4C"/>
<path d="M69.0111 73.6268L79.1428 58.0121L107.657 27.0223C111.102 23.2781 113 18.4131 113 13.3249V2.87684C113 1.98196 112.459 1.17501 111.631 0.835337C110.803 0.495661 109.852 0.688776 109.222 1.32588L90.9564 19.8253C90.1003 20.6934 90.1089 22.0909 90.9771 22.947C91.8444 23.8031 93.241 23.7945 94.098 22.9272L108.586 8.25303V13.3249C108.586 17.3027 107.102 21.1064 104.409 24.0333L75.7684 55.1602C75.6848 55.2516 75.6081 55.349 75.5408 55.4533L65.3083 71.2241C62.5167 75.5278 57.7863 78.0969 52.6567 78.0969C49.0858 78.0969 45.7037 76.8598 42.9966 74.5933L57.9863 59.6036C58.2656 59.3242 58.4527 58.9889 58.551 58.6337L71.0138 46.1622C71.0371 46.1381 71.0578 46.1131 71.0802 46.089C77.5797 46.0527 82.8576 40.755 82.8576 34.2469V34.0667C82.8576 32.8476 81.8688 31.8596 80.6506 31.8596H33.0167C31.1079 31.8596 29.2587 31.3346 27.6517 30.3587C27.6776 30.3164 27.7043 30.2751 27.7293 30.232C29.3432 27.4378 29.7716 24.1824 28.9362 21.0659L28.2164 18.3778C27.381 15.2612 25.3826 12.6559 22.5884 11.0429C20.5694 9.87813 18.3106 9.33413 16.0372 9.435L14.3629 7.76076C12.7741 6.17187 10.661 5.29595 8.41344 5.29595C6.16589 5.29595 4.0537 6.17187 2.46394 7.76076C-0.815567 11.0411 -0.815567 16.3785 2.46394 19.6598L4.46579 21.6616C4.48045 22.6522 4.61839 23.6479 4.88133 24.6299L5.6012 27.3188C6.4366 30.4354 8.435 33.0399 11.2291 34.6529C12.9232 35.6306 14.7862 36.172 16.6855 36.2616C12.1645 42.0861 12.5732 50.5254 17.9201 55.8723L38.2584 76.2106C38.3161 76.2684 38.3765 76.321 38.4386 76.371L38.9179 76.8469C39.3619 77.2883 39.824 77.7038 40.3016 78.0969H2.20703C0.987991 78.0969 0 79.0849 0 80.304C0 81.5221 0.987991 82.511 2.20703 82.511H110.787C112.005 82.511 112.994 81.5221 112.994 80.304C112.994 79.0849 112.005 78.0969 110.787 78.0969H65.0203C66.5498 76.84 67.8998 75.3399 69.0111 73.6268ZM56.2233 54.7188L47.5943 46.0907H64.8453L56.2233 54.7188ZM6.08744 15.4647C5.89174 15.8035 5.71414 16.1501 5.55293 16.5027C4.02783 14.9405 4.03818 12.43 5.58569 10.8825C6.3409 10.1264 7.34528 9.71088 8.41344 9.71088C9.40747 9.71088 10.3429 10.0747 11.0774 10.7334C9.004 11.7808 7.27631 13.4059 6.08744 15.4647ZM9.86526 26.1765L9.14452 23.4876C8.61432 21.5099 8.88675 19.4442 9.91009 17.6708C10.9343 15.8983 12.587 14.6301 14.5647 14.0999C16.5424 13.5697 18.608 13.8422 20.3814 14.8655C22.1539 15.8888 23.4221 17.5424 23.9523 19.5201L24.6731 22.2082C25.2024 24.1859 24.9308 26.2515 23.9066 28.0249C22.8833 29.7974 21.2306 31.0665 19.2529 31.5958C17.2752 32.126 15.2095 31.8536 13.4362 30.8303C11.6636 29.8069 10.3955 28.1542 9.86526 26.1765ZM21.0418 37.9764L25.0696 33.9477C27.4284 35.4581 30.1768 36.2737 33.0167 36.2737H78.1625C77.278 39.3885 74.408 41.6766 71.0138 41.6766H36.2582C35.0392 41.6766 34.0512 42.6646 34.0512 43.8837C34.0512 45.1018 35.0392 46.0907 36.2582 46.0907H41.3517L53.3041 58.0431L39.8188 71.5284L21.0409 52.7506C16.9683 48.677 16.9683 42.0499 21.0418 37.9764Z" fill="#554C4C"/>
</svg>
