<svg width="94" height="89" viewBox="0 0 94 89" fill="none" xmlns="http://www.w3.org/2000/svg">
<g clip-path="url(#clip0)">
<path d="M15.4061 30.5755C18.7406 26.9671 25.1508 24.7124 31.3251 29.1437C32.989 30.3382 34.2754 31.9839 34.9053 33.8685C36.975 40.0563 33.5085 46.1021 27.9196 47.7931C26.0034 48.3724 24.7434 50.1087 24.7434 52.012V52.1322C24.7434 54.3401 26.4569 56.1497 28.7475 56.5557C35.9707 57.836 41.078 62.5484 41.078 68.4505C41.078 75.3956 31.1321 81.1915 24.7418 81.1915C14.6079 81.1931 2.89421 61.2945 1.73817 59.4677C1.69364 59.4849 1.69529 59.4833 1.65077 59.5005C1.31435 76.6541 12.4608 89.0001 24.2751 89.0001C38.1722 89.0001 49.4786 79.7816 49.4786 68.452C49.4786 66.6642 49.2214 64.9607 48.7283 63.3556C53.9263 61.6505 65.7868 56.7774 72.1755 45.6821C72.7923 44.611 73.8988 43.9567 75.0532 43.9567C75.1489 43.9567 75.2445 43.9598 75.3402 43.9692C79.0985 44.3283 81.6151 46.8797 83.035 51.7653C84.8061 57.8595 84.0129 64.5641 80.8565 70.1602C78.5428 74.262 75.9075 76.3433 72.944 76.3449C72.944 76.3449 72.944 76.3449 72.9423 76.3449C72.8467 76.3449 69.0488 76.2949 66.6971 74.109C65.9534 73.4173 58.9034 67.9118 56.4989 67.2138C56.2763 67.1498 56.052 67.295 56.0322 67.5136C55.8904 69.0391 55.7173 74.9599 60.813 79.7831C65.396 84.1223 71.7335 84.2971 72.8896 84.2971C72.9473 84.2971 72.9902 84.2956 73.0215 84.2956C77.3043 84.2956 83.4258 82.4922 88.2676 73.9029C92.4251 66.5299 93.4706 57.6908 91.1355 49.6527C87.9708 38.7619 80.4112 36.4573 76.1845 36.0529C75.8052 36.017 75.4259 35.9998 75.0483 35.9998C70.8397 35.9998 66.9033 38.2232 64.8006 41.8722C59.4129 51.2282 48.5996 55.1489 44.5494 56.3402C42.8838 54.5899 40.8422 53.0628 38.4658 51.7997C38.2019 51.6591 38.1541 51.3344 38.3701 51.1345C43.207 46.6158 45.2024 39.2038 43.1048 32.0104C40.7333 23.8786 32.5603 18.5636 23.6534 18.7432C18.424 18.8494 13.7026 20.1469 10.279 23.0854C10.058 23.2759 10.0135 23.596 10.1668 23.838L14.3919 30.5068C14.6129 30.8581 15.1225 30.8815 15.4061 30.5755Z" fill="#554C4C"/>
<path d="M59.1425 28.6564C58.2206 28.6564 57.3021 28.6033 56.3786 28.4971C44.8924 27.184 40.514 15.6796 39.5971 12.8206C39.5245 12.5927 39.7818 12.4053 39.9945 12.5302C42.239 13.8402 50.4928 18.4136 57.6138 19.2005C58.097 19.2536 58.5851 19.2817 59.0749 19.2817C63.356 19.2817 67.8631 17.241 72.5086 13.1969C73.2722 12.5334 74.4612 12.5802 75.1934 13.2735L79.4185 17.2738C80.1952 18.0092 80.1969 19.2193 79.3921 19.9266C72.7972 25.7303 66.0029 28.6564 59.1425 28.6564Z" fill="#554C4C"/>
<path d="M66.9791 7.94745L59.9324 14.6193C59.624 14.9113 59.1243 14.9113 58.8159 14.6193L51.7693 7.94745C51.4609 7.65546 51.4609 7.18236 51.7693 6.89038L58.8159 0.218499C59.1243 -0.0734839 59.624 -0.0734839 59.9324 0.218499L66.9791 6.89038C67.2875 7.18236 67.2875 7.65546 66.9791 7.94745Z" fill="#554C4C"/>
</g>
<defs>
<clipPath id="clip0">
<rect width="94" height="89" fill="white"/>
</clipPath>
</defs>
</svg>
