<svg width="130" height="82" viewBox="0 0 130 82" fill="none" xmlns="http://www.w3.org/2000/svg">
<path d="M129.818 64.6117C129.504 63.9452 128.833 63.5199 128.096 63.5199H101.243C106.537 60.4146 111.021 56.3999 114.582 51.5698C118.23 46.6232 120.734 40.9553 121.825 35.1789C121.962 34.4545 121.669 33.7167 121.072 33.284C120.476 32.8513 119.683 32.8016 119.037 33.1568L95.9585 45.843C96.4821 44.3947 96.8881 42.9248 97.1717 41.4468C97.1808 41.4273 97.1928 41.41 97.2014 41.39C101.577 31.2568 102.006 19.8678 98.379 10.1437C98.1216 9.45312 97.4886 8.97324 96.754 8.91154C96.02 8.85009 95.3156 9.2175 94.9465 9.85556L78.7069 37.9274C78.0802 38.3284 77.4637 38.7534 76.8577 39.2013C77.0054 37.4407 77.0826 35.6611 77.0826 33.8766C77.0826 20.8672 73.2207 8.93794 66.4841 1.13363C66.2881 0.890386 66.0314 0.694117 65.7302 0.569195C65.1531 0.330269 64.5046 0.392223 63.9894 0.715446C63.8163 0.823864 63.6637 0.958433 63.5357 1.11255C56.7884 8.91636 52.9189 20.8558 52.9189 33.8766C52.9189 35.6618 52.9961 37.442 53.1438 39.2031C52.5375 38.7549 51.9203 38.3294 51.2931 37.9282L42.2292 22.2604C41.7026 21.3499 40.5377 21.0391 39.6271 21.5655C38.7169 22.0921 38.4059 23.2572 38.9325 24.1675L45.1214 34.8656C41.5746 33.574 37.8765 32.9841 34.2215 33.1809C34.1717 33.1824 34.1222 33.1875 34.0727 33.1928C32.6666 27.2941 32.6181 21.212 33.9529 15.5593L35.0939 17.5314C35.6205 18.4417 36.7854 18.7527 37.6959 18.2261C38.6062 17.6995 38.9172 16.5346 38.3906 15.6241L35.0535 9.85531C34.6844 9.21749 33.9787 8.84857 33.246 8.91128C32.5114 8.97298 31.8784 9.45287 31.621 10.1435C27.9934 19.8676 28.4228 31.2563 32.7986 41.3897C32.8042 41.4029 32.8123 41.4141 32.8181 41.427C33.1 42.9124 33.5045 44.3858 34.0265 45.8346L10.9634 33.1568C10.3175 32.8016 9.52453 32.8511 8.92811 33.284C8.33143 33.7167 8.03817 34.4548 8.17477 35.1789C9.2658 40.9553 11.7706 46.6232 15.418 51.5698C18.9795 56.3999 23.4632 60.4146 28.7574 63.5199H1.9043C1.16721 63.5199 0.496389 63.9452 0.182053 64.6117C-0.132283 65.2782 -0.0340209 66.0663 0.434944 66.6353C4.17371 71.1719 9.09899 74.9322 14.6781 77.5099C20.5179 80.2079 26.8343 81.5759 33.4521 81.5759C40.07 81.5759 46.3866 80.2079 52.2262 77.5099C57.1022 75.2572 61.4783 72.1009 65 68.3129C68.5214 72.1009 72.8977 75.2572 77.7738 77.5099C83.6136 80.2079 89.93 81.5759 96.5478 81.5759C103.166 81.5759 109.482 80.2079 115.322 77.5099C120.901 74.9322 125.827 71.1719 129.565 66.6353C130.034 66.0663 130.132 65.2782 129.818 64.6117ZM117.028 38.6069C114.077 47.7572 107.289 55.8725 98.2541 60.8389C96.3488 61.8863 94.3612 62.7859 92.3421 63.5197H80.7188C82.3651 62.6145 83.9528 61.5567 85.4509 60.3537C86.2707 59.6951 86.4018 58.4966 85.7431 57.6765C85.0847 56.8566 83.8863 56.7256 83.0659 57.3843C78.3809 61.1469 72.7421 63.3099 67.3448 63.46C67.5228 57.0453 70.5461 50.3589 75.644 45.261C80.7429 40.1623 87.4296 37.1385 93.8453 36.9618C93.7148 42.0785 91.8094 47.3154 88.3858 51.8859C87.7553 52.7276 87.9264 53.9212 88.7681 54.5517C89.6098 55.1821 90.8035 55.0108 91.4339 54.1693C92.0184 53.3891 92.5625 52.5905 93.0683 51.7773L117.028 38.6069ZM96.0471 15.5591C97.3817 21.2123 97.3332 27.2944 95.927 33.1931C95.8811 33.188 95.8351 33.1829 95.7889 33.1814C92.1301 32.9824 88.4287 33.5717 84.8788 34.8643L96.0471 15.5591ZM65.001 5.37793C70.2119 12.4452 73.2743 22.8952 73.2743 33.8761C73.2743 36.8763 73.0509 39.8614 72.6098 42.7486C72.6002 42.8116 72.5941 42.8743 72.5908 42.9367C69.0681 46.5635 66.4871 50.7764 64.9997 55.204C63.5129 50.7774 60.9327 46.5653 57.411 42.939C57.4077 42.8756 57.4013 42.8116 57.3914 42.7476C56.9507 39.8614 56.7272 36.8765 56.7272 33.8764C56.7275 22.8952 59.7898 12.4452 65.001 5.37793ZM54.356 45.261C59.4537 50.3589 62.4772 57.0453 62.6552 63.46C56.2405 63.282 49.5539 60.2585 44.4562 55.1608C39.3585 50.0629 36.335 43.3765 36.157 36.9618C42.5717 37.1398 49.2583 40.1633 54.356 45.261ZM31.7459 60.8389C22.7114 55.8725 15.9232 47.7572 12.9721 38.6069L36.9167 51.7691C38.2606 53.9261 39.8818 55.9728 41.763 57.8537C44.0433 60.1341 46.5661 62.0353 49.2352 63.5194H37.6581C35.6388 62.7861 33.6512 61.8863 31.7459 60.8389ZM33.4521 77.7674C23.1425 77.7674 13.2844 73.9255 6.29053 67.3285H60.6138C53.6199 73.9252 43.7618 77.7674 33.4521 77.7674ZM96.5478 77.7674C86.2382 77.7674 76.3801 73.9255 69.3862 67.3285H123.709C116.716 73.9252 106.857 77.7674 96.5478 77.7674Z" fill="#554C4C"/>
</svg>
