<svg width="109" height="109" viewBox="0 0 109 109" fill="none" xmlns="http://www.w3.org/2000/svg">
<path d="M107.428 105.801H94.2072C99.1156 101.424 98.6902 92.7701 93.6835 88.6169C94.743 88.6684 95.9503 88.3074 95.9503 87.0203C95.9503 84.5447 95.1215 82.5066 93.4875 80.9632C92.5353 80.0638 91.4019 79.4367 90.2553 78.9988C90.6796 78.3004 90.9242 77.481 90.9242 76.6056C90.9242 74.0564 88.8505 71.9826 86.3015 71.9826C83.7525 71.9826 81.6789 74.0564 81.6789 76.6056C81.6789 77.115 81.763 77.6047 81.9156 78.0634H79.2959C79.3172 73.0169 79.8134 67.6669 78.5315 62.7398C76.2369 53.9198 69.0967 46.9917 60.2652 44.8184V41.0151C66.2077 38.7079 70.4334 32.9317 70.4334 26.1832C70.4334 20.5407 67.3438 15.2308 62.4674 12.4087C62.9954 11.2683 63.2704 10.0255 63.2704 8.74356C63.2706 3.92229 59.3488 0 54.5279 0C49.7071 0 45.7852 3.92229 45.7852 8.74335C45.7852 10.0168 46.0634 11.2638 46.5912 12.4068C41.8331 15.1593 38.6225 20.3016 38.6225 26.183C38.6225 32.821 42.7106 38.5195 48.4998 40.8999V44.8752C43.4578 46.071 40.188 48.5387 40.0403 48.6517C40.0398 48.6519 40.0396 48.6523 40.0392 48.6525C38.8466 49.4934 37.7171 50.4443 36.6825 51.4823C35.2628 52.9065 37.4766 55.209 38.9441 53.7365C39.4229 53.2563 39.9255 52.7984 40.4462 52.3634C43.1811 57.0059 48.4768 60.0103 54.2265 60.0103C59.9504 60.0103 65.2404 56.8886 67.9735 52.0707C73.1469 56.191 76.1687 62.4298 76.1404 69.1138L76.1027 78.0632H74.0938C72.0391 78.0632 72.0357 81.2564 74.0938 81.2564H82.5468V85.9817C80.5191 86.1424 78.5047 86.4545 76.5134 86.866C75.6225 87.0501 72.6226 87.7053 72.5977 87.7302C72.5683 87.7596 68.761 86.0666 68.9345 80.1724C68.9349 80.1569 68.9351 80.1411 68.9351 80.1254V65.7105C68.9351 63.6558 65.7419 63.6524 65.7419 65.7105V80.1024C65.6144 84.6405 67.3443 87.3913 68.9204 88.946C64.9043 90.3039 60.0711 92.3316 54.6407 95.357C49.0414 92.2313 44.0019 90.1266 39.676 88.7133C41.213 87.1357 42.8388 84.417 42.7151 80.0121V65.6202C42.7151 63.5655 39.5219 63.5621 39.5219 65.6202V80.0351C39.5219 80.0509 39.5221 80.0664 39.5225 80.0822C39.6811 85.4663 36.5075 87.3145 35.9291 87.6057C31.8425 86.5273 28.6019 86.1041 26.3877 85.951V81.2564H34.8407C36.8956 81.2564 36.9097 78.0632 34.8407 78.0632H32.518C32.509 77.3588 32.4956 76.6537 32.4822 75.9649C32.3754 70.5013 32.2742 65.3407 34.373 60.4275C35.1802 58.538 32.2446 57.2801 31.4366 59.173C29.0683 64.717 29.1807 70.4669 29.2895 76.0272C29.3027 76.697 29.3156 77.382 29.3244 78.063H27.0185C27.1713 77.6045 27.2552 77.1146 27.2552 76.6052C27.2552 74.056 25.1815 71.9821 22.6325 71.9821C20.0835 71.9821 18.0099 74.056 18.0099 76.6052C18.0099 77.4806 18.2545 78.2997 18.6787 78.9982C17.5324 79.4361 16.399 80.0632 15.4468 80.9626C13.8128 82.506 12.984 84.5441 12.984 87.0197C12.984 88.4027 14.3101 88.6652 15.4006 88.6162C10.5491 93.1914 9.68697 101.005 14.8161 105.8H1.6276C0.745852 105.8 0.0310059 106.515 0.0310059 107.397C0.0310059 108.278 0.745852 108.993 1.6276 108.993C1.6276 108.993 71.5582 108.973 72.5079 108.973C74.4263 108.973 74.0983 105.8 72.2484 105.8C72.2484 105.8 50.1128 105.7 44.5231 105.718C56.6312 96.7373 66.9023 92.6846 73.5586 90.8606C80.1404 89.0571 84.4893 89.026 85.6527 89.0767C90.3756 89.2825 94.2704 92.1568 94.4872 97.2065C94.6762 101.608 91.1814 105.362 86.8559 105.8H81.7691C79.7715 105.8 79.6216 108.805 81.5914 108.986C81.8577 109.011 107.428 108.993 107.428 108.993C109.483 108.994 109.486 105.801 107.428 105.801ZM48.9784 8.74335C48.9784 5.68301 51.4678 3.19318 54.5279 3.19318C57.5881 3.19318 60.0775 5.68301 60.0775 8.74335C60.0775 9.56698 59.8959 10.3638 59.5531 11.0942C57.9723 10.5662 56.284 10.2759 54.5279 10.2759C52.7717 10.2759 51.0829 10.5662 49.5021 11.0944C49.1596 10.3627 48.9784 9.56208 48.9784 8.74335ZM54.5279 13.469C58.3178 13.469 61.7234 15.1384 64.0545 17.7781C60.9671 23.5665 56.4587 26.7948 50.6384 27.3747C45.9576 27.8417 42.1058 26.3642 42.056 26.3448C41.9775 26.3139 41.8976 26.2916 41.8178 26.2737C41.8176 26.2432 41.8155 26.2134 41.8155 26.183C41.8157 19.1725 47.5183 13.469 54.5279 13.469ZM42.3383 29.7843C43.7373 30.1728 46.0343 30.6598 48.7627 30.6598C49.425 30.6598 50.1132 30.6311 50.8196 30.5653C55.3971 30.1385 61.5423 28.0382 66.0234 20.761C66.8025 22.4067 67.2404 24.2443 67.2404 26.183C67.2404 33.1935 61.5376 38.8967 54.5281 38.8967C48.7689 38.8967 43.8951 35.0458 42.3383 29.7843ZM54.2267 56.8173C49.4995 56.8173 45.1677 54.3211 43.0502 50.4914C44.4281 49.6695 47.0444 48.3417 50.3783 47.7446C51.1393 47.6084 51.6932 46.9463 51.6932 46.1731V41.8319C52.6139 41.9984 53.5602 42.0899 54.5281 42.0899C55.3941 42.0899 56.2435 42.0178 57.0725 41.8839V46.1031C57.0725 46.8697 57.6172 47.5281 58.3704 47.6716C60.1328 48.0073 62.6803 48.7239 65.3353 50.2506C63.207 54.2259 58.8998 56.8173 54.2267 56.8173ZM92.564 85.4237H85.7398V81.2566C87.327 81.3903 89.7629 81.8375 91.295 83.2847C91.919 83.8742 92.3396 84.5811 92.564 85.4237ZM86.302 75.1759C87.0903 75.1759 87.7314 75.8173 87.7314 76.6058C87.7314 77.3943 87.0903 78.0355 86.302 78.0355C85.5137 78.0355 84.8725 77.3941 84.8725 76.6058C84.8725 75.8176 85.5137 75.1759 86.302 75.1759ZM22.6328 75.1759C23.421 75.1759 24.0622 75.8173 24.0622 76.6058C24.0622 77.3943 23.421 78.0355 22.6328 78.0355C21.8445 78.0355 21.2033 77.3941 21.2033 76.6058C21.2033 75.8176 21.8445 75.1759 22.6328 75.1759ZM17.6324 83.2915C19.1743 81.8292 21.6084 81.3833 23.1948 81.2528V85.4237H16.3707C16.594 84.5843 17.0123 83.8795 17.6324 83.2915ZM16.2162 92.3269C17.487 90.6863 20.0416 89.1961 23.3791 89.0867C24.4724 89.0507 35.408 88.7297 51.4133 97.2351C50.9309 97.5273 50.4453 97.8254 49.9549 98.1334C48.3097 98.0255 32.6065 97.2293 28.3445 105.751C26.098 105.744 23.8511 105.727 21.6182 105.695C15.2953 105.073 12.4801 97.1503 16.2162 92.3269ZM39.4912 105.738C37.074 105.748 34.6297 105.756 32.1742 105.757C34.3 103.371 38.0975 102.267 41.2083 101.758C42.5865 101.532 43.934 101.405 45.1391 101.336C43.4372 102.531 41.6979 103.819 39.9253 105.21C39.7373 105.357 39.5932 105.539 39.4912 105.738Z" fill="#554C4C"/>
</svg>
