<svg width="102" height="102" viewBox="0 0 102 102" fill="none" xmlns="http://www.w3.org/2000/svg">
<path d="M25.5996 84.668C25.5996 89.2267 21.8908 92.9355 17.332 92.9355C12.7733 92.9355 9.06445 89.2267 9.06445 84.668C9.06445 80.1092 12.7733 76.4004 17.332 76.4004C19.2595 76.4004 19.2595 73.4121 17.332 73.4121C11.1256 73.4121 6.07617 78.4615 6.07617 84.668C6.07617 90.8744 11.1256 95.9238 17.332 95.9238C23.5385 95.9238 28.5879 90.8744 28.5879 84.668C28.5879 82.7405 25.5996 82.7405 25.5996 84.668Z" fill="#554C4C"/>
<path d="M90.5369 13.9453H34.331C32.7514 6.00425 25.7301 0 17.332 0C7.77511 0 0 7.77511 0 17.332V24.3047C0 26.2321 2.98828 26.2321 2.98828 24.3047V17.332C2.98828 9.42285 9.42285 2.98828 17.332 2.98828C25.2412 2.98828 31.6758 9.42285 31.6758 17.332V74.9493C28.5548 70.3579 23.2899 67.3359 17.332 67.3359C11.3742 67.3359 6.10924 70.3579 2.98828 74.9493V33.668C2.98828 31.7405 0 31.7405 0 33.668V84.9668C0 85.0007 0.00278906 85.0339 0.00498047 85.0672C0.202008 93.7348 6.79336 100.851 15.2363 101.873C15.4205 101.954 15.6237 102 15.8379 102H75.3047C77.2321 102 77.2321 99.0117 75.3047 99.0117H27.0507C31.6421 95.8908 34.6641 90.6258 34.6641 84.668C34.6641 84.6413 34.6633 84.615 34.6631 84.5883C34.6631 84.5815 34.6641 84.5749 34.6641 84.5684V17.332C34.6641 17.1988 34.6621 17.0661 34.6591 16.9336H90.5369C95.21 16.9336 99.0117 20.7353 99.0117 25.4084V90.5369C99.0117 95.21 95.21 99.0117 90.5369 99.0117H83.8711C81.9436 99.0117 81.9436 102 83.8711 102H90.5369C96.8578 102 102 96.8576 102 90.5369V25.4084C102 19.0877 96.8578 13.9453 90.5369 13.9453ZM17.332 99.0117C9.42285 99.0117 2.98828 92.5772 2.98828 84.668C2.98828 76.7588 9.42285 70.3242 17.332 70.3242C25.2412 70.3242 31.6758 76.7588 31.6758 84.668C31.6758 92.5772 25.2412 99.0117 17.332 99.0117Z" fill="#554C4C"/>
<path d="M89.0898 86.8985L87.4321 88.5562C86.0695 89.9192 88.182 92.0317 89.5452 90.6693L91.2029 89.0116C92.5658 87.6485 90.4531 85.5362 89.0898 86.8985Z" fill="#554C4C"/>
<path d="M72.8446 91.0982C73.2269 91.0982 73.6094 90.9523 73.9012 90.6607L91.2032 73.3589C92.5658 71.9959 90.4529 69.8832 89.09 71.2458L71.7881 88.5476C70.8795 89.4562 71.5433 91.0982 72.8446 91.0982Z" fill="#554C4C"/>
<path d="M57.5441 90.7458C57.9264 90.7458 58.3089 90.6 58.6008 90.3084L91.2031 57.706C92.5658 56.343 90.4531 54.2304 89.09 55.5929L56.4875 88.195C55.579 89.1039 56.2426 90.7458 57.5441 90.7458Z" fill="#554C4C"/>
<path d="M41.5367 91.1004C41.919 91.1004 42.3015 90.9546 42.5934 90.6629L91.2032 42.0532C92.5658 40.6901 90.4531 38.5776 89.0901 39.9401L40.4801 88.5496C39.5716 89.4585 40.2352 91.1004 41.5367 91.1004Z" fill="#554C4C"/>
<path d="M40.2422 76.742C40.6245 76.742 41.007 76.5962 41.2988 76.3043L89.7596 27.8362C91.1224 26.4733 89.0091 24.3606 87.6465 25.7235L39.1855 74.1914C38.2771 75.1 38.9411 76.742 40.2422 76.742Z" fill="#554C4C"/>
<path d="M39.1857 60.6516C39.7622 61.2281 40.7223 61.2277 41.2986 60.6514L74.1066 27.8415C74.6901 27.258 74.6901 26.3119 74.1063 25.7285C73.523 25.1452 72.577 25.145 71.9934 25.7287L39.1855 58.5387C38.6022 59.1222 38.6022 60.0683 39.1857 60.6516Z" fill="#554C4C"/>
<path d="M56.3672 25.7383L39.1867 42.8841C37.8225 44.2455 39.9336 46.3606 41.2977 44.9992L58.4781 27.8534C59.0622 27.2705 59.0632 26.3244 58.4803 25.7405C57.8972 25.1564 56.9511 25.1554 56.3672 25.7383Z" fill="#554C4C"/>
<path d="M40.7155 25.7026L39.1855 27.2326C37.8229 28.5957 39.9354 30.7082 41.2986 29.3457L42.8286 27.8157C43.4122 27.232 43.4122 26.2861 42.8286 25.7026C42.2451 25.1193 41.2992 25.1193 40.7155 25.7026Z" fill="#554C4C"/>
</svg>
