<svg width="30" height="30" viewBox="0 0 30 30" fill="none" xmlns="http://www.w3.org/2000/svg">
<path d="M21.8792 0H8.12071C3.64288 0 0 3.64288 0 8.12071V21.8795C0 26.3571 3.64288 29.9999 8.12071 29.9999H21.8795C26.3571 29.9999 29.9999 26.3571 29.9999 21.8795V8.12071C29.9999 3.64288 26.3571 0 21.8792 0V0ZM28.2412 21.8795C28.2412 25.3873 25.3873 28.2412 21.8792 28.2412H8.12071C4.61265 28.2412 1.75872 25.3873 1.75872 21.8795V8.12071C1.75872 4.61265 4.61265 1.75872 8.12071 1.75872H21.8795C25.3873 1.75872 28.2412 4.61265 28.2412 8.12071V21.8795Z" fill="#909090"/>
<path d="M15 6.797C10.4768 6.797 6.79709 10.4767 6.79709 14.9999C6.79709 19.523 10.4768 23.2027 15 23.2027C19.5231 23.2027 23.2028 19.523 23.2028 14.9999C23.2028 10.4767 19.5231 6.797 15 6.797ZM15 21.444C11.4468 21.444 8.55581 18.5533 8.55581 14.9999C8.55581 11.4467 11.4468 8.55572 15 8.55572C18.5533 8.55572 21.4441 11.4467 21.4441 14.9999C21.4441 18.5533 18.5533 21.444 15 21.444Z" fill="#909090"/>
<path d="M23.399 3.88391C22.0623 3.88391 20.9752 4.97133 20.9752 6.30777C20.9752 7.64443 22.0623 8.73185 23.399 8.73185C24.7357 8.73185 25.8231 7.64443 25.8231 6.30777C25.8231 4.9711 24.7357 3.88391 23.399 3.88391ZM23.399 6.9729C23.0323 6.9729 22.7339 6.67443 22.7339 6.30777C22.7339 5.94087 23.0323 5.64264 23.399 5.64264C23.7659 5.64264 24.0644 5.94087 24.0644 6.30777C24.0644 6.67443 23.7659 6.9729 23.399 6.9729Z" fill="#909090"/>
</svg>
